<svg xmlns="http://www.w3.org/2000/svg" viewBox="0 0 749.5 558.83" width="717.5" height="526.83"><defs><style>@import url('https://fonts.googleapis.com/css2?family=Caveat+Brush&amp;family=Source+Code+Pro&amp;family=Source+Sans+Pro&amp;family=Source+Serif+Pro&amp;display=swap');</style></defs><g fill="#ff9433" transform="translate(85, 242.01) rotate(0, 70, 36.5)"><text font-family="&quot;Caveat Brush&quot;" font-size="28px" text-anchor="start" alignment-baseline="central" text-align="left" y="18.2">Konzept</text></g><g id="5b622298-729a-46c2-3264-596d2a68dd68_svg" class="tl-centered-g" transform="translate(16, 309.69) rotate(0, 141.83, 62.5)"><path class="tl-fill-hitarea" d="M 90.84,1.56 Q 90.84,1.56 97.19,1.55 103.55,1.54 111.52,1.53 119.50,1.52 127.89,1.50 136.28,1.49 144.77,1.48 153.27,1.47 161.79,1.45 170.31,1.44 178.84,1.43 187.37,1.42 195.90,1.40 204.43,1.39 212.96,1.38 221.49,1.37 230.02,1.35 238.55,1.34 247.08,1.33 255.61,1.32 264.14,1.30 272.67,1.29 276.34,2.78 280.01,4.27 280.98,10.75 281.96,17.23 282.26,24.98 282.55,32.73 282.67,40.81 282.79,48.89 282.86,57.05 282.94,65.21 283.00,73.39 283.07,81.57 283.13,89.76 283.19,97.95 283.25,106.14 283.31,114.33 281.83,117.90 280.36,121.48 273.61,122.39 266.86,123.29 258.77,123.52 250.68,123.74 242.25,123.79 233.81,123.85 225.29,123.85 216.77,123.86 208.22,123.85 199.68,123.85 191.13,123.84 182.58,123.83 174.03,123.83 165.48,123.82 156.93,123.81 148.38,123.80 139.82,123.79 131.27,123.78 122.72,123.78 114.17,123.77 105.62,123.76 97.07,123.75 88.52,123.74 79.96,123.73 71.41,123.73 62.86,123.72 54.31,123.71 45.76,123.70 37.21,123.69 28.65,123.68 20.10,123.68 11.55,123.67 7.88,122.17 4.21,120.68 3.27,114.24 2.32,107.79 2.07,100.08 1.82,92.37 1.75,84.34 1.67,76.31 1.65,68.20 1.62,60.08 1.60,51.95 1.59,43.82 1.57,35.68 1.56,27.54 1.55,19.40 1.54,11.25 3.02,7.69 4.51,4.12 11.24,3.20 17.98,2.29 26.05,2.04 34.12,1.80 42.54,1.73 50.95,1.66 59.45,1.63 67.95,1.60 76.48,1.58 85.00,1.57 93.53,1.56 102.06,1.54 110.59,1.53 119.12,1.52 127.65,1.50 136.18,1.49 144.71,1.48 153.24,1.47 164.69,1.45"/><path d="M 90.84,1.56 Q 90.84,1.56 97.19,1.55 103.55,1.54 111.52,1.53 119.50,1.52 127.89,1.50 136.28,1.49 144.77,1.48 153.27,1.47 161.79,1.45 170.31,1.44 178.84,1.43 187.37,1.42 195.90,1.40 204.43,1.39 212.96,1.38 221.49,1.37 230.02,1.35 238.55,1.34 247.08,1.33 255.61,1.32 264.14,1.30 272.67,1.29 276.34,2.78 280.01,4.27 280.98,10.75 281.96,17.23 282.26,24.98 282.55,32.73 282.67,40.81 282.79,48.89 282.86,57.05 282.94,65.21 283.00,73.39 283.07,81.57 283.13,89.76 283.19,97.95 283.25,106.14 283.31,114.33 281.83,117.90 280.36,121.48 273.61,122.39 266.86,123.29 258.77,123.52 250.68,123.74 242.25,123.79 233.81,123.85 225.29,123.85 216.77,123.86 208.22,123.85 199.68,123.85 191.13,123.84 182.58,123.83 174.03,123.83 165.48,123.82 156.93,123.81 148.38,123.80 139.82,123.79 131.27,123.78 122.72,123.78 114.17,123.77 105.62,123.76 97.07,123.75 88.52,123.74 79.96,123.73 71.41,123.73 62.86,123.72 54.31,123.71 45.76,123.70 37.21,123.69 28.65,123.68 20.10,123.68 11.55,123.67 7.88,122.17 4.21,120.68 3.27,114.24 2.32,107.79 2.07,100.08 1.82,92.37 1.75,84.34 1.67,76.31 1.65,68.20 1.62,60.08 1.60,51.95 1.59,43.82 1.57,35.68 1.56,27.54 1.55,19.40 1.54,11.25 3.02,7.69 4.51,4.12 11.24,3.20 17.98,2.29 26.05,2.04 34.12,1.80 42.54,1.73 50.95,1.66 59.45,1.63 67.95,1.60 76.48,1.58 85.00,1.57 93.53,1.56 102.06,1.54 110.59,1.53 119.12,1.52 127.65,1.50 136.18,1.49 144.71,1.48 153.24,1.47 164.69,1.45" fill="#fbe8d6" pointer-events="none"/><path d="M 90.83,0.31 Q 90.83,0.31 97.19,0.34 103.55,0.38 111.52,0.41 119.50,0.43 127.89,0.46 136.28,0.49 144.77,0.44 153.27,0.38 161.79,0.33 170.31,0.28 178.84,0.23 187.37,0.17 195.90,0.12 204.43,0.07 212.96,0.01 221.49,-0.03 230.02,-0.08 238.55,-0.14 247.08,-0.19 255.61,-0.24 264.16,-0.29 272.72,-0.34 276.92,1.51 281.12,3.36 282.27,10.19 283.41,17.01 283.62,24.85 283.83,32.68 283.86,40.78 283.88,48.87 283.96,57.04 284.03,65.20 284.19,73.38 284.34,81.56 284.50,89.75 284.65,97.94 284.80,106.15 284.95,114.36 283.09,118.49 281.23,122.61 274.15,123.73 267.07,124.85 258.90,125.04 250.72,125.23 242.27,125.24 233.82,125.25 225.29,125.22 216.77,125.18 208.22,125.14 199.68,125.09 191.13,125.05 182.58,125.00 174.03,124.95 165.48,124.90 156.93,124.85 148.38,124.80 139.82,124.83 131.27,124.87 122.72,124.90 114.17,124.93 105.62,124.96 97.07,124.99 88.51,125.03 79.96,125.06 71.41,125.09 62.86,125.12 54.31,125.16 45.76,125.19 37.20,125.22 28.65,125.25 20.08,125.28 11.50,125.31 7.30,123.44 3.09,121.58 1.98,114.79 0.87,108.00 0.71,100.21 0.54,92.41 0.56,84.37 0.58,76.32 0.55,68.20 0.53,60.09 0.42,51.95 0.31,43.82 0.20,35.68 0.10,27.54 0.00,19.37 -0.09,11.21 1.76,7.10 3.63,2.99 10.70,1.86 17.77,0.73 25.92,0.52 34.08,0.31 42.51,0.28 50.94,0.25 59.45,0.26 67.95,0.28 76.47,0.30 85.00,0.32 93.53,0.35 102.06,0.38 110.59,0.41 119.12,0.43 127.65,0.46 136.18,0.49 144.71,0.44 153.24,0.38 164.69,0.33 176.14,0.27 176.33,0.30 176.51,0.33 176.68,0.42 176.85,0.51 176.98,0.64 177.11,0.78 177.18,0.95 177.26,1.12 177.28,1.31 177.31,1.49 177.27,1.68 177.23,1.86 177.13,2.02 177.03,2.18 176.89,2.31 176.75,2.43 176.57,2.50 176.40,2.57 176.21,2.58 176.02,2.59 175.84,2.54 175.66,2.49 175.50,2.38 175.35,2.28 175.23,2.13 175.12,1.98 175.06,1.80 175.00,1.62 175.00,1.43 175.00,1.25 175.06,1.07 175.12,0.89 175.23,0.74 175.34,0.59 175.50,0.48 175.66,0.38 175.84,0.33 176.02,0.28 176.21,0.29 176.39,0.30 176.57,0.37 176.74,0.44 176.89,0.56 177.03,0.68 177.13,0.84 177.22,1.00 177.26,1.18 177.31,1.37 177.29,1.56 177.27,1.74 177.19,1.91 177.11,2.08 176.98,2.22 176.85,2.36 176.68,2.45 176.52,2.53 176.33,2.56 176.15,2.60 176.15,2.60 176.15,2.60 164.70,2.57 153.24,2.55 144.71,2.52 136.18,2.49 127.65,2.54 119.12,2.60 110.59,2.65 102.06,2.70 93.53,2.76 85.00,2.81 76.48,2.87 67.96,2.93 59.46,2.99 50.96,3.06 42.57,3.17 34.17,3.29 26.18,3.56 18.19,3.84 11.79,4.55 5.39,5.25 4.28,8.28 3.18,11.30 3.10,19.42 3.03,27.53 2.95,35.67 2.87,43.81 2.79,51.95 2.71,60.08 2.74,68.19 2.77,76.30 2.93,84.32 3.10,92.33 3.43,99.96 3.77,107.58 4.55,113.68 5.33,119.79 8.46,120.91 11.60,122.03 20.13,122.07 28.66,122.11 37.21,122.16 45.76,122.21 54.31,122.26 62.86,122.31 71.41,122.36 79.97,122.41 88.52,122.46 97.07,122.51 105.62,122.56 114.17,122.61 122.72,122.65 131.27,122.70 139.83,122.75 148.38,122.80 156.93,122.77 165.48,122.74 174.03,122.70 182.58,122.67 191.13,122.64 199.68,122.61 208.22,122.57 216.77,122.53 225.28,122.49 233.80,122.44 242.22,122.35 250.64,122.26 258.65,122.00 266.65,121.74 273.07,121.04 279.48,120.35 280.57,117.32 281.67,114.29 281.69,106.12 281.72,97.96 281.75,89.77 281.79,81.58 281.82,73.40 281.85,65.22 281.77,57.06 281.70,48.90 281.49,40.84 281.27,32.78 280.89,25.11 280.52,17.44 279.70,11.30 278.89,5.17 275.76,4.05 272.63,2.93 264.12,2.91 255.62,2.89 247.08,2.86 238.55,2.83 230.02,2.80 221.49,2.77 212.96,2.74 204.43,2.72 195.90,2.69 187.37,2.66 178.84,2.63 170.31,2.60 161.79,2.58 153.27,2.55 144.77,2.52 136.28,2.49 127.89,2.54 119.50,2.60 111.52,2.65 103.55,2.70 97.19,2.75 90.84,2.80 90.69,2.78 90.54,2.77 90.40,2.71 90.26,2.66 90.14,2.57 90.01,2.49 89.91,2.38 89.81,2.27 89.74,2.13 89.67,2.00 89.64,1.85 89.60,1.71 89.60,1.56 89.60,1.41 89.64,1.26 89.67,1.12 89.74,0.99 89.81,0.85 89.91,0.74 90.01,0.63 90.13,0.54 90.26,0.46 90.40,0.40 90.54,0.35 90.69,0.33 Z" fill="#ff9433" stroke="#ff9433" stroke-width="2" pointer-events="none" opacity="1"/></g><g fill="#7746f1" transform="translate(554.8399999999999, 240.03) rotate(0, 35.5, 36.5)"><text font-family="&quot;Caveat Brush&quot;" font-size="28px" text-anchor="start" alignment-baseline="central" text-align="left" y="18.2">App</text></g><g id="c2c626fd-5688-46fd-0626-acf8de35204e_svg" class="tl-centered-g" transform="translate(449.84, 307.03) rotate(0, 141.83, 62.5)"><path class="tl-fill-hitarea" d="M 91.04,0.91 Q 91.04,0.91 97.40,0.92 103.75,0.92 111.73,0.93 119.71,0.94 128.10,0.95 136.49,0.96 144.99,0.97 153.48,0.98 162.01,0.99 170.53,1.00 179.06,1.01 187.59,1.02 196.12,1.03 204.65,1.04 213.19,1.05 221.72,1.06 230.25,1.08 238.78,1.09 247.32,1.10 255.85,1.11 264.38,1.12 272.91,1.13 276.58,2.62 280.24,4.11 281.15,10.63 282.06,17.15 282.26,24.96 282.46,32.76 282.48,40.89 282.51,49.02 282.48,57.23 282.46,65.45 282.43,73.68 282.39,81.92 282.35,90.16 282.31,98.40 282.28,106.64 282.24,114.88 280.74,118.47 279.24,122.06 272.48,122.98 265.72,123.89 257.62,124.12 249.51,124.35 241.07,124.40 232.63,124.46 224.10,124.47 215.57,124.48 207.01,124.48 198.46,124.48 189.90,124.47 181.34,124.47 172.78,124.46 164.22,124.46 155.66,124.46 147.10,124.45 138.54,124.45 129.98,124.44 121.42,124.44 112.86,124.43 104.30,124.43 95.74,124.42 87.18,124.42 78.62,124.41 70.06,124.41 61.50,124.40 52.94,124.40 44.38,124.40 35.82,124.39 27.25,124.39 18.69,124.38 10.13,124.38 6.46,122.89 2.79,121.39 1.93,114.86 1.07,108.33 0.93,100.52 0.78,92.70 0.82,84.56 0.86,76.42 0.95,68.19 1.04,59.97 1.14,51.72 1.23,43.47 1.34,35.22 1.44,26.96 1.54,18.71 1.64,10.46 3.16,6.86 4.68,3.27 11.42,2.36 18.16,1.45 26.24,1.22 34.32,1.00 42.73,0.95 51.15,0.90 59.65,0.90 68.15,0.89 76.68,0.90 85.20,0.90 93.73,0.91 102.26,0.92 110.80,0.93 119.33,0.94 127.86,0.95 136.39,0.96 144.93,0.97 153.46,0.98 164.91,1.00"/><path d="M 91.04,0.91 Q 91.04,0.91 97.40,0.92 103.75,0.92 111.73,0.93 119.71,0.94 128.10,0.95 136.49,0.96 144.99,0.97 153.48,0.98 162.01,0.99 170.53,1.00 179.06,1.01 187.59,1.02 196.12,1.03 204.65,1.04 213.19,1.05 221.72,1.06 230.25,1.08 238.78,1.09 247.32,1.10 255.85,1.11 264.38,1.12 272.91,1.13 276.58,2.62 280.24,4.11 281.15,10.63 282.06,17.15 282.26,24.96 282.46,32.76 282.48,40.89 282.51,49.02 282.48,57.23 282.46,65.45 282.43,73.68 282.39,81.92 282.35,90.16 282.31,98.40 282.28,106.64 282.24,114.88 280.74,118.47 279.24,122.06 272.48,122.98 265.72,123.89 257.62,124.12 249.51,124.35 241.07,124.40 232.63,124.46 224.10,124.47 215.57,124.48 207.01,124.48 198.46,124.48 189.90,124.47 181.34,124.47 172.78,124.46 164.22,124.46 155.66,124.46 147.10,124.45 138.54,124.45 129.98,124.44 121.42,124.44 112.86,124.43 104.30,124.43 95.74,124.42 87.18,124.42 78.62,124.41 70.06,124.41 61.50,124.40 52.94,124.40 44.38,124.40 35.82,124.39 27.25,124.39 18.69,124.38 10.13,124.38 6.46,122.89 2.79,121.39 1.93,114.86 1.07,108.33 0.93,100.52 0.78,92.70 0.82,84.56 0.86,76.42 0.95,68.19 1.04,59.97 1.14,51.72 1.23,43.47 1.34,35.22 1.44,26.96 1.54,18.71 1.64,10.46 3.16,6.86 4.68,3.27 11.42,2.36 18.16,1.45 26.24,1.22 34.32,1.00 42.73,0.95 51.15,0.90 59.65,0.90 68.15,0.89 76.68,0.90 85.20,0.90 93.73,0.91 102.26,0.92 110.80,0.93 119.33,0.94 127.86,0.95 136.39,0.96 144.93,0.97 153.46,0.98 164.91,1.00" fill="#e2daf8" pointer-events="none"/><path d="M 91.04,-0.33 Q 91.04,-0.33 97.40,-0.28 103.75,-0.23 111.73,-0.18 119.71,-0.13 128.10,-0.08 136.49,-0.03 144.99,-0.06 153.48,-0.09 162.01,-0.12 170.53,-0.15 179.06,-0.18 187.59,-0.21 196.12,-0.24 204.66,-0.27 213.19,-0.30 221.72,-0.33 230.25,-0.36 238.79,-0.39 247.32,-0.42 255.85,-0.45 264.41,-0.48 272.96,-0.50 277.17,1.36 281.37,3.23 282.44,10.09 283.51,16.95 283.62,24.84 283.74,32.73 283.67,40.87 283.60,49.02 283.58,57.23 283.55,65.45 283.61,73.69 283.67,81.92 283.72,90.16 283.78,98.40 283.83,106.67 283.88,114.93 282.00,119.06 280.12,123.19 273.02,124.32 265.93,125.44 257.74,125.64 249.56,125.83 241.10,125.85 232.64,125.86 224.10,125.83 215.57,125.80 207.01,125.76 198.46,125.72 189.90,125.68 181.34,125.63 172.78,125.59 164.22,125.54 155.66,125.50 147.10,125.45 138.54,125.49 129.98,125.52 121.42,125.56 112.86,125.60 104.30,125.63 95.74,125.67 87.18,125.70 78.62,125.74 70.06,125.78 61.50,125.81 52.94,125.85 44.38,125.88 35.81,125.92 27.25,125.96 18.67,125.99 10.09,126.02 5.87,124.14 1.65,122.26 0.63,115.39 -0.37,108.52 -0.43,100.63 -0.49,92.73 -0.35,84.57 -0.22,76.41 -0.13,68.18 -0.05,59.95 -0.04,51.71 -0.03,43.46 -0.02,35.20 -0.02,26.95 -0.00,18.67 0.00,10.39 1.90,6.26 3.80,2.14 10.87,1.01 17.95,-0.10 26.11,-0.29 34.27,-0.48 42.71,-0.49 51.14,-0.50 59.65,-0.46 68.15,-0.42 76.68,-0.38 85.20,-0.33 93.74,-0.28 102.27,-0.23 110.80,-0.18 119.33,-0.13 127.86,-0.08 136.39,-0.03 144.93,-0.06 153.46,-0.09 164.91,-0.12 176.37,-0.14 176.55,-0.11 176.74,-0.08 176.90,0.00 177.07,0.09 177.20,0.22 177.33,0.36 177.41,0.53 177.48,0.70 177.50,0.89 177.53,1.07 177.48,1.26 177.44,1.44 177.35,1.60 177.25,1.76 177.11,1.89 176.96,2.01 176.79,2.08 176.61,2.15 176.42,2.16 176.24,2.17 176.06,2.12 175.87,2.06 175.72,1.96 175.56,1.85 175.45,1.70 175.34,1.55 175.28,1.38 175.22,1.20 175.22,1.01 175.22,0.82 175.28,0.64 175.34,0.46 175.45,0.31 175.57,0.17 175.72,0.06 175.88,-0.04 176.06,-0.09 176.24,-0.14 176.43,-0.13 176.62,-0.11 176.79,-0.04 176.97,0.02 177.11,0.14 177.25,0.26 177.35,0.42 177.44,0.58 177.49,0.77 177.53,0.95 177.50,1.14 177.48,1.32 177.40,1.49 177.33,1.66 177.20,1.80 177.07,1.94 176.90,2.02 176.73,2.11 176.55,2.14 176.36,2.17 176.36,2.17 176.36,2.17 164.91,2.12 153.46,2.06 144.92,2.01 136.39,1.96 127.86,1.99 119.33,2.02 110.80,2.05 102.26,2.08 93.73,2.12 85.20,2.15 76.68,2.18 68.15,2.22 59.66,2.26 51.16,2.31 42.76,2.40 34.36,2.49 26.36,2.74 18.37,3.00 11.96,3.70 5.56,4.40 4.42,7.46 3.28,10.52 3.09,18.75 2.90,26.98 2.71,35.23 2.51,43.49 2.32,51.73 2.13,59.98 2.04,68.20 1.96,76.42 2.01,84.55 2.06,92.68 2.29,100.41 2.52,108.14 3.22,114.34 3.92,120.53 7.05,121.63 10.18,122.74 18.72,122.78 27.26,122.82 35.82,122.86 44.38,122.91 52.94,122.95 61.50,123.00 70.06,123.04 78.62,123.09 87.18,123.13 95.74,123.18 104.30,123.22 112.86,123.27 121.42,123.32 129.98,123.36 138.54,123.41 147.10,123.45 155.66,123.41 164.22,123.38 172.78,123.34 181.34,123.31 189.90,123.27 198.46,123.23 207.01,123.19 215.56,123.15 224.09,123.10 232.62,123.05 241.05,122.95 249.47,122.86 257.49,122.60 265.51,122.33 271.93,121.63 278.36,120.93 279.48,117.88 280.60,114.82 280.72,106.61 280.85,98.39 280.98,90.15 281.11,81.91 281.24,73.68 281.37,65.44 281.39,57.23 281.41,49.02 281.30,40.91 281.18,32.79 280.89,25.07 280.61,17.35 279.86,11.17 279.12,4.99 275.99,3.88 272.87,2.77 264.36,2.72 255.85,2.67 247.31,2.62 238.78,2.57 230.25,2.52 221.72,2.47 213.18,2.42 204.65,2.37 196.12,2.32 187.59,2.27 179.06,2.22 170.53,2.17 162.00,2.11 153.48,2.06 144.99,2.01 136.49,1.96 128.10,1.99 119.71,2.02 111.73,2.05 103.75,2.09 97.39,2.12 91.04,2.15 90.89,2.13 90.74,2.12 90.60,2.06 90.46,2.01 90.34,1.92 90.21,1.84 90.11,1.73 90.01,1.61 89.95,1.48 89.88,1.35 89.84,1.20 89.80,1.06 89.80,0.91 89.80,0.76 89.84,0.61 89.88,0.47 89.95,0.33 90.02,0.20 90.12,0.09 90.22,-0.01 90.34,-0.10 90.46,-0.18 90.60,-0.24 90.74,-0.29 90.89,-0.31 Z" fill="#7746f1" stroke="#7746f1" stroke-width="2" pointer-events="none" opacity="1"/></g><g id="8891e2f7-ff8d-45a5-247d-ecf24947d3a4_svg" class="tl-centered-g" transform="translate(273.82, 460.18) rotate(0, 96.24, 41.32)"><g pointer-events="none" opacity="1"><path class="tl-stroke-hitarea" d="M 0.46,-15.18 Q 0.46,-15.18 0.79,-13.84 1.12,-12.49 1.20,-10.68 1.28,-8.87 1.57,-5.90 1.85,-2.92 2.62,1.46 3.39,5.86 5.14,11.82 6.88,17.78 10.38,25.27 13.87,32.76 20.16,41.29 26.45,49.82 36.68,58.19 46.91,66.55 61.89,72.48 76.87,78.40 95.32,78.63 113.78,78.85 128.86,73.31 143.94,67.77 154.34,59.69 164.74,51.61 171.22,43.29 177.70,34.97 181.38,27.63 185.05,20.28 186.95,14.40 188.86,8.53 189.74,4.20 190.63,-0.12 191.00,-3.06 191.37,-6.00 191.56,-9.09 191.75,-12.17 191.82,-12.53 191.89,-12.89 192.07,-13.20 192.26,-13.52 192.53,-13.76 192.80,-14.00 193.14,-14.14 193.47,-14.28 193.84,-14.31 194.20,-14.34 194.55,-14.25 194.90,-14.15 195.21,-13.96 195.51,-13.76 195.74,-13.47 195.97,-13.19 196.09,-12.84 196.21,-12.50 196.22,-12.14 196.23,-11.77 196.12,-11.43 196.01,-11.08 195.79,-10.79 195.58,-10.49 195.28,-10.28 194.98,-10.07 194.63,-9.97 194.28,-9.86 193.92,-9.88 193.56,-9.89 193.22,-10.02 192.88,-10.14 192.59,-10.37 192.31,-10.61 192.12,-10.91 191.92,-11.22 191.84,-11.58 191.75,-11.93 191.79,-12.29 191.82,-12.65 191.97,-12.99 192.11,-13.32 192.36,-13.59 192.60,-13.86 192.92,-14.04 193.24,-14.21 193.60,-14.28 193.96,-14.34 194.32,-14.29 194.68,-14.24 195.00,-14.08 195.33,-13.91 195.58,-13.65 195.84,-13.39 196.00,-13.07 196.15,-12.74 196.20,-12.38 196.25,-12.02 196.25,-12.02 196.25,-12.02 196.04,-8.72 195.84,-5.43 195.44,-2.32 195.04,0.78 194.09,5.35 193.13,9.92 191.11,16.11 189.08,22.29 185.16,30.01 181.25,37.74 174.38,46.45 167.51,55.16 156.52,63.56 145.53,71.96 129.67,77.65 113.81,83.34 94.56,82.97 75.30,82.61 59.70,76.33 44.10,70.06 33.47,61.28 22.84,52.51 16.32,43.59 9.80,34.67 6.18,26.86 2.57,19.05 0.76,12.84 -1.03,6.63 -1.82,2.07 -2.61,-2.49 -2.91,-5.58 -3.20,-8.68 -3.28,-10.56 -3.36,-12.44 -3.06,-13.79 -2.76,-15.15 -2.74,-15.34 -2.72,-15.53 -2.65,-15.72 -2.58,-15.90 -2.48,-16.06 -2.37,-16.22 -2.22,-16.35 -2.08,-16.49 -1.91,-16.58 -1.74,-16.67 -1.55,-16.72 -1.36,-16.77 -1.16,-16.77 -0.97,-16.77 -0.78,-16.73 -0.59,-16.68 -0.41,-16.59 -0.24,-16.51 -0.09,-16.38 0.04,-16.25 0.16,-16.09 0.27,-15.93 0.34,-15.75 0.41,-15.57 0.44,-15.38 Z"/><path d="M 0.46,-15.18 Q 0.46,-15.18 0.79,-13.84 1.12,-12.49 1.20,-10.68 1.28,-8.87 1.57,-5.90 1.85,-2.92 2.62,1.46 3.39,5.86 5.14,11.82 6.88,17.78 10.38,25.27 13.87,32.76 20.16,41.29 26.45,49.82 36.68,58.19 46.91,66.55 61.89,72.48 76.87,78.40 95.32,78.63 113.78,78.85 128.86,73.31 143.94,67.77 154.34,59.69 164.74,51.61 171.22,43.29 177.70,34.97 181.38,27.63 185.05,20.28 186.95,14.40 188.86,8.53 189.74,4.20 190.63,-0.12 191.00,-3.06 191.37,-6.00 191.56,-9.09 191.75,-12.17 191.82,-12.53 191.89,-12.89 192.07,-13.20 192.26,-13.52 192.53,-13.76 192.80,-14.00 193.14,-14.14 193.47,-14.28 193.84,-14.31 194.20,-14.34 194.55,-14.25 194.90,-14.15 195.21,-13.96 195.51,-13.76 195.74,-13.47 195.97,-13.19 196.09,-12.84 196.21,-12.50 196.22,-12.14 196.23,-11.77 196.12,-11.43 196.01,-11.08 195.79,-10.79 195.58,-10.49 195.28,-10.28 194.98,-10.07 194.63,-9.97 194.28,-9.86 193.92,-9.88 193.56,-9.89 193.22,-10.02 192.88,-10.14 192.59,-10.37 192.31,-10.61 192.12,-10.91 191.92,-11.22 191.84,-11.58 191.75,-11.93 191.79,-12.29 191.82,-12.65 191.97,-12.99 192.11,-13.32 192.36,-13.59 192.60,-13.86 192.92,-14.04 193.24,-14.21 193.60,-14.28 193.96,-14.34 194.32,-14.29 194.68,-14.24 195.00,-14.08 195.33,-13.91 195.58,-13.65 195.84,-13.39 196.00,-13.07 196.15,-12.74 196.20,-12.38 196.25,-12.02 196.25,-12.02 196.25,-12.02 196.04,-8.72 195.84,-5.43 195.44,-2.32 195.04,0.78 194.09,5.35 193.13,9.92 191.11,16.11 189.08,22.29 185.16,30.01 181.25,37.74 174.38,46.45 167.51,55.16 156.52,63.56 145.53,71.96 129.67,77.65 113.81,83.34 94.56,82.97 75.30,82.61 59.70,76.33 44.10,70.06 33.47,61.28 22.84,52.51 16.32,43.59 9.80,34.67 6.18,26.86 2.57,19.05 0.76,12.84 -1.03,6.63 -1.82,2.07 -2.61,-2.49 -2.91,-5.58 -3.20,-8.68 -3.28,-10.56 -3.36,-12.44 -3.06,-13.79 -2.76,-15.15 -2.74,-15.34 -2.72,-15.53 -2.65,-15.72 -2.58,-15.90 -2.48,-16.06 -2.37,-16.22 -2.22,-16.35 -2.08,-16.49 -1.91,-16.58 -1.74,-16.67 -1.55,-16.72 -1.36,-16.77 -1.16,-16.77 -0.97,-16.77 -0.78,-16.73 -0.59,-16.68 -0.41,-16.59 -0.24,-16.51 -0.09,-16.38 0.04,-16.25 0.16,-16.09 0.27,-15.93 0.34,-15.75 0.41,-15.57 0.44,-15.38 Z" fill="#1d1d1d" stroke="#1d1d1d" stroke-width="0" stroke-dasharray="none" stroke-dashoffset="none" stroke-linecap="round" stroke-linejoin="round" pointer-events="none"/><path class="tl-stroke-hitarea" d="M 185.02,0.4940287724119079 L 194.02,-12.74 200.98,1.6645275860811433"/><path d="M 185.02,0.4940287724119079 L 194.02,-12.74 200.98,1.6645275860811433" fill="none" stroke="#1d1d1d" stroke-width="4.23" stroke-linecap="round" stroke-linejoin="round" pointer-events="none"/></g></g><g id="b0fbc7e3-a5c0-4d17-02ce-5c2d1ff8c08f_svg" class="tl-centered-g" transform="translate(240.66999999999996, 58.34) rotate(0, 123.16, 57.83)"><g opacity="1"><rect class="tl-fill-hitarea" x="2.11" y="2.11" width="244.21" height="113.54"/><rect x="2.11" y="2.11" width="244.21" height="113.54" fill="#d2e4f4" pointer-events="none"/><g pointer-events="none" stroke="#1c7ed6" stroke-width="4.23" stroke-linecap="round"><line x1="2.11" y1="2.11" x2="244.21" y2="2.11" stroke-dasharray="6.47 6.97" stroke-dashoffset="3.23"/><line x1="244.21" y1="2.11" x2="244.21" y2="113.54" stroke-dasharray="6.47 7.45" stroke-dashoffset="3.23"/><line x1="244.21" y1="113.54" x2="2.11" y2="113.54" stroke-dasharray="6.47 6.97" stroke-dashoffset="3.23"/><line x1="2.11" y1="113.54" x2="2.11" y2="2.11" stroke-dasharray="6.47 7.45" stroke-dashoffset="3.23"/></g></g></g><g fill="#1c7ed6" transform="translate(326.99999999999994, 16) rotate(0, 36.5, 26.5)"><text font-family="&quot;Caveat Brush&quot;" font-size="28px" text-anchor="start" alignment-baseline="central" text-align="left" y="18.2">Daten</text></g><g id="140e2026-4cdd-4fe8-06e2-a472615a5b74_svg" class="tl-centered-g" transform="translate(398.59, 190.01) rotate(0, 23.77, 50.51)"><g pointer-events="none" opacity="1"><path class="tl-stroke-hitarea" d="M0,0L47.55,101.02"/><path d="M0,0L47.55,101.02" fill="#1d1d1d" stroke="#1d1d1d" stroke-width="4.23" stroke-dasharray="6.47 8.55" stroke-dashoffset="0" stroke-linecap="round" stroke-linejoin="round" pointer-events="stroke"/><path class="tl-stroke-hitarea" d="M 48.88,85.07596682813232 L 47.55,101.02 34.41,91.89003062539669"/><path d="M 48.88,85.07596682813232 L 47.55,101.02 34.41,91.89003062539669" fill="none" stroke="#1d1d1d" stroke-width="4.23" stroke-linecap="round" stroke-linejoin="round" pointer-events="none"/></g></g><g id="cb5edddc-f6b3-4e6d-0f2b-d11fa118ec14_svg" class="tl-centered-g" transform="translate(444.57, 190.01) rotate(0, 20.3, 47.5)"><g pointer-events="none" opacity="1"><path class="tl-stroke-hitarea" d="M40.6,95L0,0"/><path d="M40.6,95L0,0" fill="#1d1d1d" stroke="#1d1d1d" stroke-width="4.23" stroke-dasharray="6.47 12.89" stroke-dashoffset="0" stroke-linecap="round" stroke-linejoin="round" pointer-events="stroke"/><path class="tl-stroke-hitarea" d="M -1.911007280099855,15.88546666533298 L 0,0 12.80,9.59771418404997"/><path d="M -1.911007280099855,15.88546666533298 L 0,0 12.80,9.59771418404997" fill="none" stroke="#1d1d1d" stroke-width="4.23" stroke-linecap="round" stroke-linejoin="round" pointer-events="none"/></g></g></svg>